<?xml version="1.0" encoding="UTF-8"?>
<svg version="1.1" xmlns="http://www.w3.org/2000/svg" width="512" height="512">
<path d="M0 0 C0.65414136 -0.00235223 1.30828272 -0.00470446 1.98224655 -0.00712797 C4.17149812 -0.01377841 6.3606898 -0.01336095 8.5499506 -0.01294994 C10.13661239 -0.01625104 11.72327335 -0.01997713 13.30993325 -0.02409142 C17.66842671 -0.03409167 22.0269064 -0.03782503 26.38540971 -0.04048073 C31.0870725 -0.04438967 35.78872444 -0.05396762 40.49038029 -0.0626936 C51.84437082 -0.08244166 63.19836222 -0.09252225 74.55236563 -0.10142139 C79.90249365 -0.10580712 85.25262068 -0.11117321 90.60274792 -0.11641026 C108.39361808 -0.13342111 126.18448764 -0.14791446 143.97536469 -0.155159 C148.59056378 -0.15706881 153.20576287 -0.15898916 157.82096195 -0.16094494 C159.54153641 -0.16167055 159.54153641 -0.16167055 161.29686994 -0.16241082 C179.87118291 -0.17070809 198.44543142 -0.19604054 217.01971626 -0.22852562 C236.10023931 -0.26162332 255.18072964 -0.27961022 274.26128155 -0.28280324 C284.96993576 -0.28496585 295.67849597 -0.2936781 306.38712215 -0.31926441 C315.50858125 -0.34100846 324.62992351 -0.34900362 333.75140559 -0.33929763 C338.40138379 -0.33476364 343.05112111 -0.33658654 347.70106602 -0.35605907 C351.96697316 -0.37376827 356.23246507 -0.37263071 360.49837709 -0.35716178 C362.03277989 -0.35479741 363.56721204 -0.35904774 365.10157018 -0.37099043 C378.23193539 -0.46677134 390.67680294 1.59624129 402.46280766 7.69672108 C403.12151859 8.03260242 403.78022953 8.36848377 404.45890141 8.71454334 C411.43133536 12.46340894 416.81233268 17.47497155 422.27530766 23.13422108 C423.01265141 23.84062733 423.74999516 24.54703358 424.50968266 25.27484608 C428.81016836 29.64200598 431.74508009 34.4096052 434.52530766 39.82172108 C435.00145512 40.73764027 435.00145512 40.73764027 435.48722172 41.67206287 C436.51851582 43.79456589 437.40026855 45.9421852 438.27530766 48.13422108 C438.61781559 48.98990681 438.96032352 49.84559254 439.31321049 50.72720814 C443.47602945 62.94228478 442.85489693 75.37233904 442.80655766 88.13031483 C442.80925768 90.65270099 442.81314432 93.17508613 442.81815434 95.69746876 C442.82402635 100.96496074 442.81595145 106.23224808 442.79679203 111.49969959 C442.77504216 117.54833805 442.78207683 123.59643656 442.80409765 129.64506191 C442.82459536 135.51519307 442.82222434 141.38512278 442.81057072 147.25527096 C442.8079227 149.72973235 442.8111045 152.20420775 442.82048893 154.67865276 C442.86853031 170.90399682 442.32519428 185.61474264 434.71280766 200.32172108 C434.37692631 200.98043201 434.04104496 201.63914295 433.69498539 202.31781483 C429.9461198 209.29024878 424.93455718 214.6712461 419.27530766 220.13422108 C418.56890141 220.87156483 417.86249516 221.60890858 417.13468266 222.36859608 C412.78701905 226.64988314 408.03190091 229.60101849 402.65030766 232.38422108 C402.04807377 232.70165272 401.44583988 233.01908436 400.82535648 233.34613514 C388.65378329 239.29050084 376.27043621 240.72769088 362.91837406 240.64215565 C361.32393992 240.64677638 359.72951005 240.65313709 358.13508892 240.66106462 C353.79681242 240.67762038 349.45889206 240.66957496 345.12061501 240.65711975 C340.42522792 240.64801466 335.72989919 240.66206588 331.03452396 240.67303944 C321.85329665 240.69077132 312.67220056 240.68700851 303.49096823 240.67538887 C296.02529199 240.66633377 288.55965237 240.66513952 281.09397221 240.66948414 C280.02904596 240.67009707 278.96411971 240.67071 277.86692297 240.67134151 C275.70314994 240.67262049 273.53937692 240.67391734 271.37560391 240.67523187 C251.11377882 240.68662206 230.85202626 240.6735485 210.59021306 240.65203041 C193.22674474 240.63416086 175.86338342 240.63726541 158.49991703 240.65570545 C138.3076937 240.67713978 118.11553386 240.68552357 97.92330074 240.6732564 C95.76774821 240.67198228 93.61219566 240.67072479 91.4566431 240.66948414 C89.86602651 240.66855849 89.86602651 240.66855849 88.24327624 240.66761413 C80.79163718 240.66416892 73.34003859 240.66997167 65.8884058 240.67940235 C56.80008292 240.69065222 47.71189813 240.68751965 38.62359095 240.66627938 C33.99179172 240.65580908 29.36022225 240.65157808 24.72842503 240.66487598 C20.47950768 240.67688962 16.2310307 240.6700914 11.9821527 240.64896578 C10.45408487 240.64453738 8.925979 240.64668006 7.39793611 240.65646893 C-5.70729717 240.7339116 -18.14942136 238.660175 -29.91219234 232.57172108 C-30.57090328 232.23583973 -31.22961422 231.89995838 -31.90828609 231.55389881 C-38.88072005 227.80503322 -44.26171737 222.7934706 -49.72469234 217.13422108 C-50.46203609 216.42781483 -51.19937984 215.72140858 -51.95906734 214.99359608 C-56.25955305 210.62643618 -59.19446478 205.85883695 -61.97469234 200.44672108 C-62.29212399 199.83610828 -62.60955563 199.22549549 -62.93660641 198.59637928 C-63.96787011 196.47393881 -64.84938404 194.32606473 -65.72469234 192.13422108 C-66.06720028 191.28148106 -66.40970821 190.42874104 -66.76259518 189.55016041 C-70.95920666 177.26380397 -70.3040677 164.71750871 -70.25594234 151.88422108 C-70.25864213 149.33701905 -70.26252858 146.78981804 -70.26753902 144.24261951 C-70.2734111 138.92382436 -70.26533508 133.60530817 -70.24617672 128.28656483 C-70.2244155 122.17542436 -70.23146978 116.06481808 -70.25348234 109.95369053 C-70.27396335 104.02590809 -70.27161565 98.09828861 -70.25995541 92.17047596 C-70.25730522 89.67006828 -70.26049705 87.16964676 -70.26987362 84.66925526 C-70.34297838 59.70129775 -70.34297838 59.70129775 -65.72469234 48.13422108 C-65.25366589 46.91731083 -65.25366589 46.91731083 -64.77312374 45.67581654 C-63.98761139 43.73057473 -63.11560983 41.87734624 -62.16219234 40.00922108 C-61.65837032 39.01438709 -61.65837032 39.01438709 -61.14437008 37.99945545 C-57.40302678 30.99381331 -52.40202785 25.61465478 -46.72469234 20.13422108 C-46.01828609 19.39687733 -45.31187984 18.65953358 -44.58406734 17.89984608 C-33.23675669 6.72577681 -15.7772568 0.02428113 0 0 Z " fill="#C24FFE" transform="translate(69.72469234466553,271.86577892303467)"/>
<path d="M0 0 C12.59354385 9.80114279 22.40792984 22.92916504 25 39 C25.04194387 40.91364717 25.05328281 42.82813354 25.0390625 44.7421875 C25.03342285 45.72815918 25.0277832 46.71413086 25.02197266 47.72998047 C25.01472168 48.47908691 25.0074707 49.22819336 25 50 C25.62560822 49.99111755 26.25121643 49.98223511 26.89578247 49.9730835 C33.4170822 49.88447305 39.93821041 49.8242087 46.45996094 49.78027344 C48.89264881 49.76017929 51.32528851 49.73289912 53.7578125 49.69824219 C57.25793355 49.6496294 60.75741502 49.62700861 64.2578125 49.609375 C65.34240753 49.58872986 66.42700256 49.56808472 67.54446411 49.54681396 C73.50773808 49.54504869 77.4296462 49.73797455 82 54 C84.91725372 57.98172036 85.37761547 60.81422025 85.38768005 65.71104431 C85.39575836 66.70340563 85.39575836 66.70340563 85.40399987 67.71581465 C85.41826924 69.92523612 85.41117864 72.13405758 85.40405273 74.34350586 C85.40975687 75.93055197 85.41672129 77.51759398 85.42485046 79.10462952 C85.44279243 83.41044327 85.44161155 87.71605335 85.43590808 92.02189326 C85.43281769 95.6178635 85.43890702 99.21379454 85.44494683 102.8097592 C85.45899388 111.29369751 85.4574293 119.77753513 85.44604492 128.26147461 C85.43456347 137.01105267 85.44863936 145.76032422 85.4754414 154.50986189 C85.49759967 162.02509053 85.50423549 169.54022298 85.49836498 177.05548197 C85.4949945 181.54263146 85.49741647 186.02958447 85.51461601 190.51670647 C85.53008514 194.73655727 85.5261302 198.9559541 85.50731087 203.17578697 C85.50362486 204.72293766 85.50673386 206.27012197 85.51719666 207.81724167 C85.53040869 209.932674 85.51885992 212.04660381 85.50120544 214.16197205 C85.50099616 215.3445909 85.50078688 216.52720976 85.50057125 217.74566555 C84.74142957 222.68102874 82.58809084 225.65679678 78.81180477 228.85077 C74.836412 230.4755772 71.26793682 230.41795177 67.01112366 230.38768005 C66.1045363 230.39306559 65.19794895 230.39845113 64.26388925 230.40399987 C61.22534873 230.41831006 58.18724198 230.4111681 55.14868164 230.40405273 C52.97051136 230.40975469 50.79234408 230.41671826 48.61418152 230.42485046 C42.69686511 230.4428161 36.77969671 230.44160707 30.86236119 230.43590808 C25.92431772 230.4328212 20.98630289 230.43890309 16.04826349 230.44494683 C4.40007143 230.45900159 -7.24804731 230.45742278 -18.89624023 230.44604492 C-30.91769146 230.43456203 -42.93888539 230.44864017 -54.96031088 230.4754414 C-65.27805814 230.49758407 -75.59573532 230.50423902 -85.91350466 230.49836498 C-92.07737446 230.49499088 -98.24110125 230.49744072 -104.4049511 230.51461601 C-110.2006489 230.53006016 -115.99601576 230.52615747 -121.79170036 230.50731087 C-123.91937191 230.50361803 -126.04706783 230.5067536 -128.17471695 230.51719666 C-131.07824155 230.53036039 -133.98066313 230.5188997 -136.88414001 230.50120544 C-138.14849433 230.51561295 -138.14849433 230.51561295 -139.43839115 230.53031152 C-144.74142901 230.46377214 -147.85706127 229.61025127 -152 226 C-155.06940214 222.13489248 -155.37767187 219.15833979 -155.38768005 214.28895569 C-155.39306559 213.62738148 -155.39845113 212.96580727 -155.40399987 212.28418535 C-155.41826924 210.07476388 -155.41117864 207.86594242 -155.40405273 205.65649414 C-155.40975687 204.06944803 -155.41672129 202.48240602 -155.42485046 200.89537048 C-155.44279243 196.58955673 -155.44161155 192.28394665 -155.43590808 187.97810674 C-155.43281769 184.3821365 -155.43890702 180.78620546 -155.44494683 177.1902408 C-155.45899388 168.70630249 -155.4574293 160.22246487 -155.44604492 151.73852539 C-155.43456347 142.98894733 -155.44863936 134.23967578 -155.4754414 125.49013811 C-155.49759967 117.97490947 -155.50423549 110.45977702 -155.49836498 102.94451803 C-155.4949945 98.45736854 -155.49741647 93.97041553 -155.51461601 89.48329353 C-155.53008514 85.26344273 -155.5261302 81.0440459 -155.50731087 76.82421303 C-155.50362486 75.27706234 -155.50673386 73.72987803 -155.51719666 72.18275833 C-155.53040869 70.067326 -155.51885992 67.95339619 -155.50120544 65.83802795 C-155.50099616 64.6554091 -155.50078688 63.47279024 -155.50057125 62.25433445 C-154.76666823 57.48305391 -152.49352756 54.37127576 -148.9777832 51.14331055 C-144.18682928 49.30383877 -139.43877289 49.63480487 -134.35546875 49.70703125 C-133.2305452 49.71127609 -132.10562164 49.71552094 -130.9466095 49.71989441 C-127.35999438 49.7366631 -123.77394479 49.77431312 -120.1875 49.8125 C-117.75326333 49.82754913 -115.31901784 49.84123713 -112.88476562 49.85351562 C-106.92298471 49.88656075 -100.96153277 49.93674272 -95 50 C-95.01155624 48.87035828 -95.01155624 48.87035828 -95.02334595 47.71789551 C-95.02933807 46.72882202 -95.0353302 45.73974854 -95.04150391 44.72070312 C-95.05306015 43.2507489 -95.05306015 43.2507489 -95.06484985 41.75109863 C-94.73060158 27.57142194 -85.77939172 14.53449877 -76 5 C-55.26321337 -14.24740416 -23.17670565 -15.4970543 0 0 Z M-59 32 C-62.84475602 38.04493433 -64 42.69920648 -64 50 C-44.86 50 -25.72 50 -6 50 C-6 40.49261729 -8.63503092 34.68041913 -15.0625 27.7265625 C-21.89416612 21.63866648 -29.55866959 20.63537726 -38.421875 20.7265625 C-46.86871063 21.37206304 -53.4267897 25.74589975 -59 32 Z " fill="#ED72FE" transform="translate(291,10)"/>
<path d="M0 0 C12.59354385 9.80114279 22.40792984 22.92916504 25 39 C25.04194387 40.91364717 25.05328281 42.82813354 25.0390625 44.7421875 C25.03342285 45.72815918 25.0277832 46.71413086 25.02197266 47.72998047 C25.01472168 48.47908691 25.0074707 49.22819336 25 50 C25.62560822 49.99111755 26.25121643 49.98223511 26.89578247 49.9730835 C33.4170822 49.88447305 39.93821041 49.8242087 46.45996094 49.78027344 C48.89264881 49.76017929 51.32528851 49.73289912 53.7578125 49.69824219 C57.25793355 49.6496294 60.75741502 49.62700861 64.2578125 49.609375 C65.34240753 49.58872986 66.42700256 49.56808472 67.54446411 49.54681396 C73.50773808 49.54504869 77.4296462 49.73797455 82 54 C84.90358912 57.96535277 85.36854694 60.74998393 85.34057617 65.6262207 C85.34093778 66.28102763 85.34129938 66.93583456 85.34167194 67.61048412 C85.33944478 69.71590157 85.31665633 71.82050762 85.29296875 73.92578125 C85.28994751 75.21818726 85.28692627 76.51059326 85.28381348 77.84216309 C85.26812836 82.66569006 85.22624444 87.48910313 85.1875 92.3125 C85.125625 103.099375 85.06375 113.88625 85 125 C50.35 125 15.7 125 -20 125 C-20 136.22 -20 147.44 -20 159 C-25.89285714 168.42857143 -25.89285714 168.42857143 -31 170 C-35.90569331 170.78921574 -39.67821606 170.62514378 -43.875 167.8125 C-46.98276742 165.44789435 -47.79885912 163.66856814 -50 160 C-50 148.45 -50 136.9 -50 125 C-84.65 125 -119.3 125 -155 125 C-155.0825 114.23375 -155.165 103.4675 -155.25 92.375 C-155.28641602 88.98395996 -155.32283203 85.59291992 -155.36035156 82.09912109 C-155.37203552 79.407233 -155.38222803 76.71533785 -155.390625 74.0234375 C-155.40107849 73.32924713 -155.41153198 72.63505676 -155.42230225 71.91983032 C-155.45175994 69.85942161 -155.45561851 67.8003351 -155.45410156 65.73974609 C-155.46742523 64.00100723 -155.46742523 64.00100723 -155.48101807 62.22714233 C-154.77133843 57.46591327 -152.48178514 54.3604945 -148.9777832 51.14331055 C-144.18682928 49.30383877 -139.43877289 49.63480487 -134.35546875 49.70703125 C-133.2305452 49.71127609 -132.10562164 49.71552094 -130.9466095 49.71989441 C-127.35999438 49.7366631 -123.77394479 49.77431312 -120.1875 49.8125 C-117.75326333 49.82754913 -115.31901784 49.84123713 -112.88476562 49.85351562 C-106.92298471 49.88656075 -100.96153277 49.93674272 -95 50 C-95.01155624 48.87035828 -95.01155624 48.87035828 -95.02334595 47.71789551 C-95.02933807 46.72882202 -95.0353302 45.73974854 -95.04150391 44.72070312 C-95.05306015 43.2507489 -95.05306015 43.2507489 -95.06484985 41.75109863 C-94.73060158 27.57142194 -85.77939172 14.53449877 -76 5 C-55.26321337 -14.24740416 -23.17670565 -15.4970543 0 0 Z M-59 32 C-62.84475602 38.04493433 -64 42.69920648 -64 50 C-44.86 50 -25.72 50 -6 50 C-6 40.49261729 -8.63503092 34.68041913 -15.0625 27.7265625 C-21.89416612 21.63866648 -29.55866959 20.63537726 -38.421875 20.7265625 C-46.86871063 21.37206304 -53.4267897 25.74589975 -59 32 Z " fill="#FEE7FD" transform="translate(291,10)"/>
<path d="M0 0 C9.47135842 7.22652347 16.88622211 16.70030954 19.41015625 28.55078125 C20.5365502 37.73644462 19.73158817 45.89769168 16.72363281 54.6015625 C16.68286393 58.22448381 16.96475527 58.59526878 19.28027344 61.15234375 C20.51862443 62.36929802 21.77557837 63.56750444 23.046875 64.75 C23.70705627 65.39316162 24.36723755 66.03632324 25.04742432 66.69897461 C27.16155355 68.75406459 29.29766086 70.78422101 31.4375 72.8125 C33.55953388 74.84398863 35.67628031 76.88043859 37.784729 78.92602539 C39.09714823 80.19724117 40.41790857 81.45991816 41.74798584 82.71264648 C46.2211572 87.01670633 49.30058419 90.82772093 50.125 97.1875 C49.50487183 102.32570487 48.07146854 106.65787527 44.14453125 110.20703125 C40.5548898 112.53167319 37.05734649 113.50384652 32.71292114 113.26124573 C25.84131376 111.73879472 20.69235581 106.13720744 16.1328125 101.12890625 C14.92974003 99.85874161 13.725271 98.58989856 12.51953125 97.32226562 C10.6531918 95.34430064 8.79799393 93.35909624 6.96533203 91.34985352 C0.47438204 83.51307579 0.47438204 83.51307579 -8.28222656 79.37841797 C-10.89376047 79.89220159 -12.9274172 80.65296819 -15.3125 81.8125 C-25.56456825 84.80409108 -36.83158076 83.29599409 -46.125 78.30078125 C-57.9438452 71.15487621 -64.39508444 62.59778046 -69.3125 49.8125 C-72.18771155 37.75258488 -70.51488646 24.5368135 -64.0625 13.9375 C-57.32594988 4.2475563 -48.50021796 -3.3147546 -36.9765625 -6.71484375 C-24.0488861 -9.00846376 -11.10145306 -7.26579119 0 0 Z " fill="#FEC4F9" transform="translate(401.3125,339.1875)"/>
<path d="M0 0 C4.36492736 2.40706674 5.93942071 4.83284673 7.8125 9.4375 C8.54520346 14.47483626 7.62027557 18.24512573 5.20703125 22.63671875 C1.89427009 26.91454198 -2.56531496 28.20982491 -7.75 28.9375 C-11.90567414 28.33303831 -15.0494453 27.21048398 -18.1875 24.4375 C-20.86230247 20.81078254 -22.03798419 17.36782061 -22.75 12.9375 C-21.99719856 8.25340213 -20.2625939 5.03050445 -17.1875 1.4375 C-11.58321258 -2.46113473 -6.19842333 -2.667967 0 0 Z " fill="#FEC1F9" transform="translate(293.1875,393.5625)"/>
<path d="M0 0 C4.36492736 2.40706674 5.93942071 4.83284673 7.8125 9.4375 C8.54520346 14.47483626 7.62027557 18.24512573 5.20703125 22.63671875 C1.89427009 26.91454198 -2.56531496 28.20982491 -7.75 28.9375 C-11.90567414 28.33303831 -15.0494453 27.21048398 -18.1875 24.4375 C-20.86230247 20.81078254 -22.03798419 17.36782061 -22.75 12.9375 C-21.99719856 8.25340213 -20.2625939 5.03050445 -17.1875 1.4375 C-11.58321258 -2.46113473 -6.19842333 -2.667967 0 0 Z " fill="#FEC1F9" transform="translate(233.1875,393.5625)"/>
<path d="M0 0 C4.36492736 2.40706674 5.93942071 4.83284673 7.8125 9.4375 C8.54520346 14.47483626 7.62027557 18.24512573 5.20703125 22.63671875 C1.89427009 26.91454198 -2.56531496 28.20982491 -7.75 28.9375 C-11.90567414 28.33303831 -15.0494453 27.21048398 -18.1875 24.4375 C-20.86230247 20.81078254 -22.03798419 17.36782061 -22.75 12.9375 C-21.99719856 8.25340213 -20.2625939 5.03050445 -17.1875 1.4375 C-11.58321258 -2.46113473 -6.19842333 -2.667967 0 0 Z " fill="#FEC1F9" transform="translate(173.1875,393.5625)"/>
<path d="M0 0 C4.36492736 2.40706674 5.93942071 4.83284673 7.8125 9.4375 C8.54520346 14.47483626 7.62027557 18.24512573 5.20703125 22.63671875 C1.89427009 26.91454198 -2.56531496 28.20982491 -7.75 28.9375 C-11.90567414 28.33303831 -15.0494453 27.21048398 -18.1875 24.4375 C-20.86230247 20.81078254 -22.03798419 17.36782061 -22.75 12.9375 C-21.99719856 8.25340213 -20.2625939 5.03050445 -17.1875 1.4375 C-11.58321258 -2.46113473 -6.19842333 -2.667967 0 0 Z " fill="#FEC1F9" transform="translate(113.1875,393.5625)"/>
</svg>
