<?xml version="1.0" encoding="UTF-8"?>
<svg version="1.1" xmlns="http://www.w3.org/2000/svg" width="512" height="512">
<path d="M0 0 C1.01790619 0.00215515 2.03581238 0.0043103 3.08456421 0.00653076 C17.69363523 0.05620146 32.02575853 0.30709809 46.375 3.3125 C47.34985352 3.51117676 48.32470703 3.70985352 49.32910156 3.91455078 C97.7109774 14.03517194 141.69928269 35.9516877 177.375 70.3125 C178.3640332 71.26068604 178.3640332 71.26068604 179.37304688 72.22802734 C188.86130305 81.37247479 197.6012044 90.66984009 205.375 101.3125 C206.23306152 102.46355017 207.09113451 103.61459177 207.94921875 104.765625 C213.98736829 112.95680614 219.34595521 121.47054105 224.375 130.3125 C224.73948242 130.94430176 225.10396484 131.57610352 225.47949219 132.22705078 C247.08534998 169.97532572 256.85198095 212.74189997 256.6875 255.9375 C256.68534485 256.95540619 256.6831897 257.97331238 256.68096924 259.02206421 C256.63129854 273.63113523 256.38040191 287.96325853 253.375 302.3125 C253.07698486 303.77478027 253.07698486 303.77478027 252.77294922 305.26660156 C242.65232806 353.6484774 220.7358123 397.63678269 186.375 433.3125 C185.74287598 433.97185547 185.11075195 434.63121094 184.45947266 435.31054688 C175.31502521 444.79880305 166.01765991 453.5387044 155.375 461.3125 C154.22394983 462.17056152 153.07290823 463.02863451 151.921875 463.88671875 C143.73224019 469.92427396 135.22961724 475.30707302 126.375 480.3125 C125.66778809 480.7146875 124.96057617 481.116875 124.23193359 481.53125 C101.09654164 494.5566741 75.92537591 503.30551461 49.9375 508.625 C49.21860596 508.77235596 48.49971191 508.91971191 47.7590332 509.0715332 C33.08339502 511.86090125 18.55831162 512.66142619 3.64770508 512.62817383 C0.70811513 512.6250221 -2.2304558 512.64854926 -5.16992188 512.67382812 C-18.54306192 512.71848737 -31.43916711 511.51301542 -44.625 509.3125 C-46.33055054 509.03031616 -46.33055054 509.03031616 -48.07055664 508.74243164 C-91.33802759 500.97044532 -132.38793216 480.98345309 -165.625 452.3125 C-166.37007813 451.67828125 -167.11515625 451.0440625 -167.8828125 450.390625 C-181.38779833 438.57948485 -194.05918743 425.82889772 -204.625 411.3125 C-205.48149066 410.16255169 -206.33826433 409.01281411 -207.1953125 407.86328125 C-213.23534209 399.67315742 -218.61867614 391.16870382 -223.625 382.3125 C-224.0271875 381.60528809 -224.429375 380.89807617 -224.84375 380.16943359 C-237.8691741 357.03404164 -246.61801461 331.86287591 -251.9375 305.875 C-252.08485596 305.15610596 -252.23221191 304.43721191 -252.3840332 303.6965332 C-255.35789088 288.05024391 -255.99800362 272.57681954 -255.9375 256.6875 C-255.93534485 255.66959381 -255.9331897 254.65168762 -255.93096924 253.60293579 C-255.88129854 238.99386477 -255.63040191 224.66174147 -252.625 210.3125 C-252.42632324 209.33764648 -252.22764648 208.36279297 -252.02294922 207.35839844 C-241.90232806 158.9765226 -219.9858123 114.98821731 -185.625 79.3125 C-184.99287598 78.65314453 -184.36075195 77.99378906 -183.70947266 77.31445312 C-174.56502521 67.82619695 -165.26765991 59.0862956 -154.625 51.3125 C-153.47394983 50.45443848 -152.32290823 49.59636549 -151.171875 48.73828125 C-142.98224019 42.70072604 -134.47961724 37.31792698 -125.625 32.3125 C-124.91778809 31.9103125 -124.21057617 31.508125 -123.48193359 31.09375 C-100.34654164 18.0683259 -75.17537591 9.31948539 -49.1875 4 C-48.46860596 3.85264404 -47.74971191 3.70528809 -47.0090332 3.5534668 C-31.36274391 0.57960912 -15.88931954 -0.06050362 0 0 Z " fill="#FED8FC" transform="translate(255.625,-0.3125)"/>
<path d="M0 0 C0.9282664 -0.00297112 1.85653281 -0.00594224 2.8129285 -0.0090034 C5.92492146 -0.01767831 9.03687591 -0.01919764 12.14888 -0.02069092 C14.37967002 -0.02531996 16.61045925 -0.03034474 18.84124756 -0.03573608 C24.90341276 -0.04885415 30.96556688 -0.05530394 37.02774405 -0.05974674 C40.81608272 -0.06267854 44.60441836 -0.06678357 48.39275551 -0.07125092 C58.89027464 -0.08335829 69.38779199 -0.09374072 79.8853178 -0.09712601 C80.55674194 -0.09734557 81.22816608 -0.09756514 81.91993641 -0.09779136 C82.92942598 -0.09811878 82.92942598 -0.09811878 83.95930928 -0.09845281 C85.32295525 -0.09889627 86.68660122 -0.09934283 88.05024719 -0.09979248 C88.72665675 -0.10001391 89.4030663 -0.10023534 90.09997312 -0.10046348 C101.05369271 -0.10440926 112.00734569 -0.12185764 122.96103957 -0.145152 C134.21843076 -0.16889811 145.47578974 -0.18107166 156.73320991 -0.18249393 C163.04921646 -0.1835414 169.36512903 -0.18943706 175.68111229 -0.20731354 C181.62449741 -0.22380818 187.56771806 -0.22594284 193.51111794 -0.21717453 C195.68871629 -0.2164049 197.86632353 -0.2207371 200.04389954 -0.23063278 C203.02465942 -0.24338061 206.00483922 -0.23745989 208.9855957 -0.22705078 C209.8401929 -0.23510719 210.6947901 -0.24316359 211.57528418 -0.25146413 C223.32874495 -0.15596531 234.40694917 4.38941325 243.11885071 12.29278564 C253.64837156 23.79501051 256.43622698 36.43405562 256.27119446 51.58966064 C256.26880313 53.05692889 256.26790616 54.52420024 256.26841736 55.99147034 C256.2653113 59.04661604 256.24891342 62.10128516 256.22187805 65.15631104 C256.18781054 69.05306279 256.18025348 72.9492957 256.18176842 76.84617901 C256.1812223 79.86868653 256.17021807 82.8910829 256.15576553 85.91355324 C256.14944801 87.34992447 256.1454706 88.78630814 256.14397812 90.22269249 C256.10970942 105.95160439 253.04541441 118.37756116 242.03291321 130.01934814 C228.02505542 143.28241186 209.80993212 142.43674609 191.77851868 142.38336182 C189.66492148 142.3844363 187.55132458 142.38637745 185.43772888 142.38911438 C179.72717694 142.39393866 174.01670382 142.38633757 168.3061614 142.37616134 C162.31575716 142.36734141 156.32535509 142.36913904 150.33494568 142.36952209 C140.27966502 142.36858725 130.22441465 142.35992712 120.16914368 142.34625244 C108.5584035 142.33052034 96.94769644 142.32525476 85.33694637 142.32598799 C72.95139596 142.32666441 60.56585825 142.31971894 48.18031168 142.31054139 C44.62123853 142.30841441 41.06216744 142.30770081 37.50309372 142.30730247 C31.90355857 142.30629493 26.30405102 142.30016472 20.70452499 142.29013634 C18.65431894 142.28722603 16.60410971 142.28598298 14.55390167 142.28656387 C11.74665483 142.28705811 8.93948411 142.28136447 6.13224792 142.27415466 C5.32911694 142.27570327 4.52598596 142.27725187 3.69851768 142.2788474 C-11.7406451 142.2137654 -22.92002648 139.28192127 -34.16630554 128.19122314 C-38.15012616 123.87683018 -40.82044176 119.48540591 -43.18974304 114.14044189 C-43.53392273 113.54747314 -43.87810242 112.95450439 -44.23271179 112.34356689 C-46.39936185 107.35585003 -46.32048951 101.73367723 -46.366745 96.36993408 C-46.37958023 95.06457703 -46.39241547 93.75921997 -46.40563965 92.41430664 C-46.41380935 91.00531399 -46.42125264 89.59631696 -46.42802429 88.18731689 C-46.43209982 87.46828438 -46.43617535 86.74925186 -46.44037437 86.00843048 C-46.46114815 82.20266518 -46.47548738 78.39693501 -46.48490906 74.59112549 C-46.49595885 70.68994139 -46.53036676 66.78932987 -46.57008076 62.88834763 C-46.59639678 59.86146079 -46.60461401 56.83470751 -46.60819054 53.80771637 C-46.61301743 52.37098572 -46.62451809 50.93425944 -46.64322853 49.49764252 C-46.79627346 36.96889212 -44.45090977 27.38597165 -37.18974304 17.14044189 C-36.59161804 16.27419189 -35.99349304 15.40794189 -35.37724304 14.51544189 C-25.79844808 4.11560736 -13.79176655 -0.01380342 0 0 Z " fill="#EA70FE" transform="translate(151.1897430419922,264.85955810546875)"/>
<path d="M0 0 C20.46 0 40.92 0 62 0 C62.495 5.445 62.495 5.445 63 11 C64.5 15 64.5 15 67 16 C72.2962469 16.56360749 72.2962469 16.56360749 76.9375 14.625 C80.31884015 9.45353859 79.25112055 8.23767392 80 0 C100.46 0 120.92 0 142 0 C142.12375 7.816875 142.2475 15.63375 142.375 23.6875 C142.45693604 27.37812622 142.45693604 27.37812622 142.54052734 31.14331055 C142.55805541 33.09942665 142.57334369 35.05556466 142.5859375 37.01171875 C142.6319812 38.52795837 142.6319812 38.52795837 142.67895508 40.0748291 C142.68004272 41.5357196 142.68004272 41.5357196 142.68115234 43.02612305 C142.70113785 44.28854073 142.70113785 44.28854073 142.7215271 45.57646179 C141.85001166 48.503796 140.52703984 50.18370868 138.0862999 52.01868534 C133.49655658 54.17752281 128.34366849 53.68905552 123.37280273 53.64697266 C121.46695908 53.66011505 121.46695908 53.66011505 119.52261353 53.67352295 C116.04935911 53.6962532 112.57684999 53.68750743 109.1035831 53.67162752 C105.46373458 53.65893827 101.82394841 53.67071674 98.18409729 53.67855835 C92.07354309 53.68764503 85.96329143 53.67569187 79.8527832 53.65185547 C72.79294438 53.6246335 65.73382733 53.6334694 58.67400593 53.6609875 C52.60585373 53.68369131 46.53791855 53.68687293 40.46973759 53.67379415 C36.84834625 53.66600804 33.22729402 53.66493468 29.60592461 53.68147659 C25.56945034 53.69862821 21.53421705 53.67484557 17.49780273 53.64697266 C15.70148659 53.66215439 15.70148659 53.66215439 13.86888123 53.67764282 C5.8366531 53.57473339 5.8366531 53.57473339 1.75436401 50.77043152 C-0.10286973 47.83755164 -0.61283233 46.45269049 -0.56762695 43.02612305 C-0.56702271 42.05219604 -0.56641846 41.07826904 -0.5657959 40.0748291 C-0.52742615 38.55858948 -0.52742615 38.55858948 -0.48828125 37.01171875 C-0.48324585 36.0731604 -0.47821045 35.13460205 -0.47302246 34.16760254 C-0.44693444 30.67392267 -0.37712708 27.18067949 -0.3125 23.6875 C-0.209375 15.870625 -0.10625 8.05375 0 0 Z " fill="#CA55FE" transform="translate(185,194)"/>
<path d="M0 0 C8.45155446 5.97051101 13.0648606 12.62001081 15.75 22.64453125 C16.09712909 24.97585211 16.43197933 27.30906162 16.75 29.64453125 C18.07390747 29.65069458 18.07390747 29.65069458 19.42456055 29.65698242 C22.7147604 29.68403109 26.00311398 29.73318076 29.29272461 29.79711914 C30.71350702 29.82024628 32.13445958 29.83468251 33.55541992 29.84008789 C35.60442466 29.84941786 37.6507735 29.89048291 39.69921875 29.9375 C40.92987061 29.95321045 42.16052246 29.9689209 43.4284668 29.98510742 C46.75 30.64453125 46.75 30.64453125 51.75 35.64453125 C51.75 45.54453125 51.75 55.44453125 51.75 65.64453125 C4.89 65.64453125 -41.97 65.64453125 -90.25 65.64453125 C-90.25 35.64453125 -90.25 35.64453125 -85.25 30.64453125 C-81.9284668 29.98510742 -81.9284668 29.98510742 -78.19921875 29.9375 C-77.54041214 29.92237869 -76.88160553 29.90725739 -76.20283508 29.89167786 C-74.114038 29.84894559 -72.0266898 29.8399786 -69.9375 29.83203125 C-68.51493583 29.80887511 -67.09240583 29.78350742 -65.66992188 29.75585938 C-62.19664196 29.69315509 -58.72384387 29.66070341 -55.25 29.64453125 C-55.0646167 28.69118896 -54.8792334 27.73784668 -54.68823242 26.75561523 C-54.43404541 25.50079346 -54.1798584 24.24597168 -53.91796875 22.953125 C-53.67071045 21.71103271 -53.42345215 20.46894043 -53.16870117 19.18920898 C-50.803368 10.06290754 -44.07375079 3.12819309 -36.1015625 -1.640625 C-24.3797141 -7.71942742 -11.27801818 -6.79422276 0 0 Z " fill="#B645FE" transform="translate(275.25,110.35546875)"/>
<path d="M0 0 C7.28507219 3.30733339 12.80880484 8.71348971 15.984375 16.09375 C17.44313232 20.69513883 18.3303158 26.37231592 16.25 30.88476562 C15.30070794 33.18462055 14.8771906 34.65911173 15.046875 37.15625 C17.65895055 40.86244021 21.01407937 43.69108705 24.421875 46.65625 C33.64097309 54.74568396 33.64097309 54.74568396 34.69995117 58.42578125 C34.75981998 61.76318134 34.0450912 64.15997271 32.609375 67.15625 C29.41190607 69.6518355 27.58003823 69.91032902 23.59399414 69.8203125 C18.15221665 68.40158013 14.66507925 63.67104455 10.984375 59.65625 C10.11876953 58.75003906 9.25316406 57.84382813 8.36132812 56.91015625 C6.23472862 54.67781423 4.13195742 52.42730181 2.046875 50.15625 C0.44972656 50.64158203 0.44972656 50.64158203 -1.1796875 51.13671875 C-8.73487588 53.17802741 -15.92084914 52.76316602 -22.953125 49.15625 C-29.30908964 44.79611966 -34.25587285 39.82738306 -35.953125 32.15625 C-36.85446246 24.19154689 -37.07376553 16.86846079 -32.5078125 10.01953125 C-24.00527166 -0.17069985 -13.03724342 -3.72492669 0 0 Z " fill="#FECEFB" transform="translate(336.953125,301.84375)"/>
<path d="M0 0 C2.98175112 2.81609828 5.62031067 6.11178461 7 10 C7 11.65 7 13.3 7 15 C-4.88 15 -16.76 15 -29 15 C-27.95391228 7.67738599 -26.80743567 4.59687799 -21.5 -0.3125 C-14.80208129 -4.83359513 -6.79755109 -3.84767043 0 0 Z " fill="#FBDBFD" transform="translate(267,126)"/>
<path d="M0 0 C2.69990662 1.79993774 4.5418865 3.083773 6 6 C6.43023798 9.87214182 6.31669086 11.52496371 4.125 14.8125 C1.61855093 17.39266816 0.74538327 17.91717964 -2.8125 18.3125 C-6.7307645 17.92835642 -8.21293267 16.70743683 -11 14 C-12.42662219 11.14675563 -12.31033868 9.16545451 -12 6 C-8.54235344 0.81353016 -6.24330406 -0.61208863 0 0 Z " fill="#E972FE" transform="translate(330,318)"/>
<path d="M0 0 C3.375 2.0625 3.375 2.0625 6 5 C6.77152986 9.32056721 6.52747866 11.19119939 4.125 14.875 C1.62545713 17.37454287 0.67824042 17.90956794 -2.8125 18.375 C-6 18 -6 18 -8.8125 15.9375 C-11.43828382 12.41144744 -12.07836758 10.38858425 -12 6 C-8.71580324 0.79058445 -6.13630292 -0.70803495 0 0 Z " fill="#FECAFB" transform="translate(241,336)"/>
<path d="M0 0 C3.4375 1.9375 3.4375 1.9375 6 5 C6.48633826 8.25383455 6.09587407 10.90848158 5 14 C2.42158536 17.02042858 0.88197317 17.83463003 -3 18.5625 C-7.13018381 17.78809054 -8.50801033 16.34638613 -11 13 C-12.0625 9.5 -12.0625 9.5 -12 6 C-8.71580324 0.79058445 -6.13630292 -0.70803495 0 0 Z " fill="#FECAFB" transform="translate(170,336)"/>
<path d="M0 0 C2.09765625 0.703125 2.09765625 0.703125 4.72265625 2.828125 C6.55137275 6.65180496 6.27276813 8.66367791 5.09765625 12.703125 C2.88214435 15.94118086 1.44661613 16.6016094 -2.33984375 17.703125 C-5.90234375 17.703125 -5.90234375 17.703125 -8.77734375 15.890625 C-11.45981103 13.12926162 -11.84026094 12.25152314 -12.27734375 8.390625 C-11.90234375 4.703125 -11.90234375 4.703125 -9.96484375 1.703125 C-6.23174164 -0.73481924 -4.29518808 -0.77442456 0 0 Z " fill="#FECAFB" transform="translate(276.90234375,336.296875)"/>
<path d="M0 0 C2.02734375 0.6328125 2.02734375 0.6328125 4.08984375 2.1953125 C5.45413505 5.74246987 5.70404123 8.88790712 5.02734375 12.6328125 C2.89132441 15.96500268 1.39462485 16.52596709 -2.41015625 17.6328125 C-5.97265625 17.6328125 -5.97265625 17.6328125 -8.84765625 15.8203125 C-11.53012353 13.05894912 -11.91057344 12.18121064 -12.34765625 8.3203125 C-11.97265625 4.6328125 -11.97265625 4.6328125 -10.03515625 1.6328125 C-6.27651726 -0.82180888 -4.31619953 -0.7899866 0 0 Z " fill="#FECBFB" transform="translate(205.97265625,336.3671875)"/>
</svg>
